<svg xmlns="http://www.w3.org/2000/svg" viewBox="0 0 158.3 86"><defs><style>.cls-1{fill:#f23558;}</style></defs><g id="Capa_2" data-name="Capa 2"><g id="Capa_1-2" data-name="Capa 1"><path class="cls-1" d="M20.4,86q-6.6,0-9.7-3T7.6,71.8q0-3.6.25-6.25c.17-1.77.33-3.5.5-5.2s.25-3.58.25-5.65a7.92,7.92,0,0,0-1.85-5C5.52,48.18,3.27,47.37,0,47.3V38.7c3.27-.13,5.52-1,6.75-2.5A7.71,7.71,0,0,0,8.6,31.3a57,57,0,0,0-.25-5.7c-.17-1.67-.33-3.4-.5-5.2s-.25-3.87-.25-6.2q0-8.1,3.1-11.15t9.7-3h6.3V7.8H24.8c-2.07,0-3.47.48-4.2,1.45s-1.1,2.82-1.1,5.55.07,5.28.2,7.85.2,5.38.2,8.45q0,5.7-1.8,8.25a9.1,9.1,0,0,1-5.6,3.45v.4a9.1,9.1,0,0,1,5.6,3.45q1.8,2.55,1.8,8.25,0,4.6-.2,8.4c-.13,2.53-.2,5.17-.2,7.9s.37,4.58,1.1,5.55,2.13,1.45,4.2,1.45h1.9V86Z"/><path class="cls-1" d="M59.4,72A25.45,25.45,0,0,1,47,69a22.12,22.12,0,0,1-8.8-8.9A28.47,28.47,0,0,1,34.9,46a26.25,26.25,0,0,1,3.6-14.1A23.9,23.9,0,0,1,48,23.05,27.29,27.29,0,0,1,60.7,20a20.78,20.78,0,0,1,8.15,1.5,26,26,0,0,1,6.35,3.8l-6.9,9.5q-3.51-2.89-6.7-2.9a10.41,10.41,0,0,0-8.45,3.8Q50,39.49,50,46t3.15,10.25a9.84,9.84,0,0,0,8,3.85,11.2,11.2,0,0,0,4.7-1.05A20.63,20.63,0,0,0,70,56.5l5.8,9.6a22.51,22.51,0,0,1-8,4.55A28,28,0,0,1,59.4,72Z"/><path class="cls-1" d="M103.9,72a26.29,26.29,0,0,1-12.8-3.1,22.66,22.66,0,0,1-9-8.9,27.88,27.88,0,0,1-3.3-14,27.28,27.28,0,0,1,3.35-13.9,24,24,0,0,1,8.75-9A22.09,22.09,0,0,1,102.2,20,20.51,20.51,0,0,1,114,23.15a19.5,19.5,0,0,1,7,8.5A30.06,30.06,0,0,1,123.3,43.8a35.65,35.65,0,0,1-.2,3.75c-.14,1.23-.27,2.15-.4,2.75H93q1,5.4,4.5,8a13.86,13.86,0,0,0,8.4,2.55,20.42,20.42,0,0,0,10.7-3.3l4.9,8.9a32.65,32.65,0,0,1-8.5,4.1A29.92,29.92,0,0,1,103.9,72Zm-11-31.4h17.9a11.11,11.11,0,0,0-2-6.75q-1.95-2.66-6.35-2.65a9,9,0,0,0-6.1,2.35A11.55,11.55,0,0,0,92.9,40.6Z"/><path class="cls-1" d="M131.6,86V78.2h1.9c2.13,0,3.55-.48,4.25-1.45s1.05-2.82,1.05-5.55-.07-5.37-.2-7.9-.2-5.33-.2-8.4c0-3.8.61-6.55,1.85-8.25a9.23,9.23,0,0,1,5.55-3.45v-.4a9.23,9.23,0,0,1-5.55-3.45c-1.24-1.7-1.85-4.45-1.85-8.25,0-3.07.06-5.88.2-8.45s.2-5.18.2-7.85-.35-4.58-1.05-5.55S135.63,7.8,133.5,7.8h-1.9V0h6.3q6.6,0,9.7,3.05t3.1,11.15c0,2.33-.09,4.4-.25,6.2s-.34,3.53-.5,5.2a57,57,0,0,0-.25,5.7,7.65,7.65,0,0,0,1.85,4.9c1.23,1.53,3.48,2.37,6.75,2.5v8.6c-3.27.07-5.52.88-6.75,2.45a7.86,7.86,0,0,0-1.85,5c0,2.07.08,3.95.25,5.65s.33,3.43.5,5.2.25,3.85.25,6.25q0,8.1-3.1,11.15t-9.7,3Z"/></g></g></svg>